<?xml version="1.0" encoding="utf-8"?>
<!-- Generator: Adobe Illustrator 17.0.0, SVG Export Plug-In . SVG Version: 6.00 Build 0)  -->
<!DOCTYPE svg PUBLIC "-//W3C//DTD SVG 1.1//EN" "http://www.w3.org/Graphics/SVG/1.1/DTD/svg11.dtd">
<svg version="1.1" id="Group_1_1_" xmlns="http://www.w3.org/2000/svg" xmlns:xlink="http://www.w3.org/1999/xlink" x="0px" y="0px"
	 width="344px" height="127px" viewBox="0 0 344 127" enable-background="new 0 0 344 127" xml:space="preserve">
<g id="Shape_2">
	<g>
		<path fill="#17A2DA" d="M9.731,78.39c-2.575,5.667-5.351,11.032-7.357,14.318C1.338,94.385,0,96.765,0,96.866
			C0,96.933,2.274,97,5.016,97c3.745,0,5.083-0.101,5.183-0.436c0.1-0.235,0.134-4.627,0.1-9.791
			C10.199,78.491,10.132,77.518,9.731,78.39z M57.518,82.28c-0.936-1.341-3.177-4.46-4.983-6.874s-3.979-5.432-4.882-6.74
			c-2.14-3.152-4.28-6.069-6.588-9.053c-1.037-1.341-1.906-2.716-1.94-3.051c-0.167-1.375,0.033-1.844,0.936-2.213
			c0.502-0.201,1.438-0.57,2.073-0.838c7.257-2.884,13.443-8.953,15.65-15.391c1.438-4.225,1.839-7.008,1.639-11.334
			c-0.401-8.349-3.01-13.882-8.661-18.275c-6.554-5.063-13.978-6.974-28.424-7.31L14.379,1v11.434l8.293,0.168
			c7.257,0.134,8.561,0.268,10.768,0.905c8.46,2.515,12.105,7.276,12.105,15.693c0,5.063-1.304,8.685-4.28,11.904
			c-4.18,4.527-9.999,6.27-20.767,6.27h-6.12v10.294l4.347,0.168c4.013,0.134,4.414,0.235,5.585,1.039
			c0.702,0.503,1.94,1.911,2.776,3.118c0.836,1.241,1.739,2.481,2.006,2.783c0.268,0.302,0.97,1.241,1.505,2.045
			c0.568,0.838,1.873,2.716,2.943,4.191c1.07,1.475,2.475,3.521,3.177,4.527c0.669,1.006,1.338,1.911,1.505,1.978
			c0.167,0.067,0.435,0.436,0.602,0.838c0.167,0.369,1.003,1.609,1.806,2.716c0.836,1.107,2.073,2.85,2.742,3.856
			c0.702,1.006,1.405,2.012,1.605,2.18c0.201,0.201,0.803,1.006,1.338,1.811c0.502,0.838,1.07,1.677,1.237,1.844
			c0.167,0.201,1.037,1.442,1.94,2.716c1.137,1.576,2.073,2.548,2.909,2.917C53.471,96.899,54.742,97,60.394,97
			c5.25,0,6.788-0.101,6.922-0.436c0.1-0.235-1.137-2.213-2.742-4.393C60.159,86.102,59.357,84.962,57.518,82.28z M177.435,1.168
			c-7.156,0.134-7.156,0.134-9.062,3.688c-0.702,1.341-1.572,2.984-1.94,3.621c-0.368,0.637-1.104,2.012-1.672,3.018
			c-0.535,1.006-1.505,2.716-2.107,3.789c-0.635,1.073-1.137,2.012-1.137,2.112s-0.97,1.844-2.14,3.923s-2.709,4.896-3.444,6.27
			c-1.672,3.118-3.11,5.767-5.016,9.121c-0.769,1.442-1.438,2.649-1.438,2.716c0,0.101-1.104,2.079-2.441,4.46
			c-1.338,2.381-2.876,5.164-3.378,6.17c-0.535,1.006-1.304,2.448-1.739,3.185c-1.605,2.817-3.545,6.472-4.749,8.986
			c-1.271,2.682-1.906,3.185-3.478,2.783c-0.535-0.101-0.97-0.704-1.405-1.777c-0.368-0.872-2.207-4.393-4.147-7.779
			c-1.906-3.387-3.879-6.941-4.381-7.88c-0.535-0.939-1.271-2.28-1.672-2.951c-1.605-2.85-1.973-3.554-3.11-5.633
			c-1.705-3.152-2.575-4.694-7.19-12.842c-2.24-3.99-4.113-7.343-4.113-7.41c0-0.134-3.344-6.17-4.013-7.243
			c-0.167-0.268-0.568-0.939-0.836-1.509c-0.268-0.536-0.869-1.609-1.304-2.347c-0.435-0.738-1.204-2.146-1.739-3.118
			c-1.605-3.085-2.006-3.219-8.996-3.353c-5.417-0.101-6.019-0.067-6.421,0.469c-0.368,0.469-0.435,9.59-0.435,47.447
			c0,25.786,0.1,47.111,0.201,47.38c0.201,0.469,0.936,0.536,6.12,0.469l5.886-0.101l0.167-33.967
			c0.134-29.709,0.234-34.001,0.669-34.269c0.702-0.436,1.772-0.402,2.408,0.101c0.401,0.335,4.615,7.41,4.615,7.813
			c0,0.067,1.739,3.253,3.879,7.075s4.013,7.276,4.18,7.645c0.167,0.369,0.669,1.274,1.137,2.012
			c0.435,0.738,1.037,1.811,1.304,2.347c0.301,0.57,0.669,1.241,0.869,1.509c0.268,0.402,3.578,6.438,8.026,14.586
			c3.879,7.075,5.384,9.724,6.12,10.495c1.07,1.174,2.742,1.744,4.983,1.744c2.307,0,4.08-0.671,5.049-1.911
			c0.702-0.872,1.204-1.71,4.882-8.651c1.003-1.844,1.906-3.487,2.04-3.688c0.167-0.168,0.736-1.241,1.338-2.347
			c0.568-1.107,1.438-2.75,1.94-3.688c0.535-0.905,1.572-2.884,2.374-4.359c0.803-1.475,1.705-3.118,2.04-3.688
			c0.334-0.536,1.204-2.146,1.906-3.521c2.307-4.326,3.812-7.142,5.15-9.456c0.702-1.207,1.438-2.582,1.639-3.018
			c0.167-0.402,0.468-1.006,0.669-1.274c0.669-1.073,4.347-7.813,4.347-8.014c0.033-0.704,1.338-1.777,2.174-1.777
			c1.94-0.034,1.839-1.609,1.839,34.47c0,27.898,0.067,33.297,0.468,33.632c0.301,0.268,2.207,0.369,6.086,0.302l5.651-0.101
			l0.1-47.413c0.033-36.549-0.033-47.514-0.334-47.883C183.522,1.134,182.385,1.067,177.435,1.168z M311.498,1.436
			c-0.334-0.268-2.14-0.369-6.421-0.268c-6.922,0.134-7.29,0.268-8.895,3.32c-0.502,1.006-1.137,2.18-1.371,2.649
			c-1.204,2.045-3.244,5.734-4.548,8.215c-0.803,1.475-1.806,3.353-2.274,4.191c-0.435,0.838-1.371,2.582-2.107,3.856
			c-0.736,1.308-1.639,2.951-2.006,3.688c-0.401,0.738-1.037,1.945-1.471,2.682c-0.435,0.738-1.237,2.18-1.772,3.185
			c-0.535,1.006-1.806,3.353-2.809,5.197c-1.003,1.844-1.94,3.588-2.073,3.856c-0.134,0.268-0.602,1.107-1.037,1.844
			c-0.468,0.738-0.97,1.71-1.17,2.112c-0.201,0.436-0.936,1.811-1.639,3.018c-0.702,1.241-1.739,3.085-2.274,4.091
			c-0.568,1.006-1.338,2.448-1.739,3.152c-0.435,0.738-1.572,2.951-2.575,4.929c-1.204,2.381-2.073,3.688-2.508,3.823
			c-1.304,0.436-2.107-0.101-2.943-1.945c-0.435-0.939-2.04-3.923-3.545-6.606s-3.612-6.438-4.648-8.383
			c-1.037-1.945-2.04-3.755-2.207-4.024c-0.368-0.604-2.542-4.426-3.444-6.036c-0.368-0.637-1.17-2.146-1.839-3.353
			c-0.635-1.207-1.271-2.314-1.404-2.515c-0.134-0.168-0.903-1.542-1.672-3.018c-0.803-1.475-2.675-4.862-4.18-7.544
			c-2.809-4.963-4.046-7.176-5.35-9.556c-0.401-0.738-1.137-2.045-1.605-2.917c-0.502-0.905-1.271-2.247-1.705-3.018
			c-2.709-4.963-2.341-4.761-9.664-4.896c-4.28-0.101-6.086,0-6.421,0.268c-0.435,0.369-0.502,6.773-0.502,47.447
			c0,25.886,0.1,47.279,0.201,47.581c0.167,0.469,1.037,0.536,5.986,0.536c4.949,0,5.819-0.067,5.986-0.536
			c0.1-0.302,0.201-15.525,0.201-33.833c0-29.843,0.067-33.364,0.535-33.833c1.037-1.039,2.842-0.503,3.444,1.039
			c0.201,0.536,0.97,2.012,1.705,3.286c0.769,1.308,1.605,2.817,1.873,3.353c0.268,0.57,0.869,1.609,1.304,2.347
			c0.435,0.738,0.97,1.71,1.17,2.112c0.167,0.436,0.936,1.811,1.639,3.018c0.702,1.241,1.739,3.085,2.307,4.091
			c0.535,1.006,1.371,2.548,1.873,3.454c0.468,0.872,1.271,2.28,1.739,3.185c0.502,0.872,1.371,2.481,1.973,3.588
			c0.602,1.107,2.241,4.024,3.645,6.505c1.404,2.448,2.542,4.56,2.542,4.627c0,0.101,0.602,1.207,1.338,2.448
			c0.736,1.274,1.739,3.051,2.207,3.923c3.879,7.41,4.648,8.148,8.828,8.148c3.411,0,4.782-1.006,7.022-5.197
			c0.769-1.475,2.006-3.688,2.709-4.929c0.702-1.207,1.438-2.582,1.639-3.018c0.201-0.402,0.702-1.375,1.104-2.112
			c1.405-2.414,4.983-9.053,5.284-9.724c0.167-0.369,0.435-0.905,0.635-1.174c0.568-0.905,4.347-7.746,4.347-7.913
			c0-0.101,0.669-1.341,1.471-2.75c1.438-2.548,2.274-4.124,5.217-9.623c0.769-1.475,2.006-3.722,2.742-5.03
			c0.702-1.274,1.438-2.582,1.572-2.85c0.368-0.738,1.639-1.308,2.441-1.073c0.368,0.067,0.803,0.536,0.97,0.972
			c0.167,0.469,0.301,14.418,0.301,33.766c0,25.148,0.1,33.028,0.401,33.33c0.268,0.268,2.04,0.402,5.785,0.402
			c3.745,0,5.518-0.134,5.785-0.402C311.9,96.296,312,85.264,312,49.017C312,8.209,311.933,1.805,311.498,1.436z"/>
	</g>
</g>
<g id="Recording____x7C___Mixing___x7C___Mastering">
	<g>
		<path fill="#17A2DA" d="M4.638,112.802c0-1.027-0.257-1.758-1.042-2.082v-0.028c0.7-0.324,1.028-0.971,1.028-1.984v-0.774
			c0-1.519-0.7-2.265-2.328-2.265h-2.37v9.847h1.571v-4.009h0.543c0.714,0,1.028,0.338,1.028,1.252v1.547
			c0,0.802,0.057,0.957,0.143,1.21h1.599c-0.157-0.366-0.171-0.717-0.171-1.196V112.802z M3.053,109.06
			c0,0.788-0.357,1.041-0.943,1.041H1.496v-3.025h0.757c0.557,0,0.8,0.31,0.8,1.013V109.06z M8.21,115.517h4.284v-1.407H9.781
			v-2.884h2.156v-1.407H9.781v-2.743h2.713v-1.407H8.21V115.517z M18.222,105.557c-1.542,0-2.342,0.9-2.342,2.476v5.121
			c0,1.576,0.8,2.476,2.342,2.476c1.542,0,2.342-0.9,2.342-2.476v-1.308h-1.485v1.407c0,0.703-0.314,0.957-0.814,0.957
			s-0.814-0.253-0.814-0.957v-5.317c0-0.703,0.314-0.971,0.814-0.971s0.814,0.267,0.814,0.971v1.055h1.485v-0.957
			C20.564,106.457,19.764,105.557,18.222,105.557z M26.321,105.557c-1.542,0-2.385,0.9-2.385,2.476v5.121
			c0,1.576,0.843,2.476,2.385,2.476c1.542,0,2.385-0.9,2.385-2.476v-5.121C28.706,106.457,27.863,105.557,26.321,105.557z
			 M27.135,113.252c0,0.703-0.314,0.971-0.814,0.971s-0.814-0.267-0.814-0.971v-5.317c0-0.703,0.314-0.971,0.814-0.971
			s0.814,0.267,0.814,0.971V113.252z M36.976,112.802c0-1.027-0.257-1.758-1.042-2.082v-0.028c0.7-0.324,1.028-0.971,1.028-1.984
			v-0.774c0-1.519-0.7-2.265-2.328-2.265h-2.371v9.847h1.571v-4.009h0.543c0.714,0,1.028,0.338,1.028,1.252v1.547
			c0,0.802,0.057,0.957,0.143,1.21h1.599c-0.157-0.366-0.171-0.717-0.171-1.196V112.802z M35.391,109.06
			c0,0.788-0.357,1.041-0.943,1.041h-0.614v-3.025h0.757c0.557,0,0.8,0.31,0.8,1.013V109.06z M43.032,105.669h-2.485v9.847h2.485
			c1.571,0,2.342-0.858,2.342-2.434v-4.98C45.374,106.528,44.603,105.669,43.032,105.669z M43.803,113.153
			c0,0.703-0.3,0.957-0.8,0.957h-0.885v-7.034h0.885c0.5,0,0.8,0.253,0.8,0.957V113.153z M48.918,115.517h1.571v-9.847h-1.571
			V115.517z M57.744,111.564h-0.029l-1.585-5.894h-1.971v9.847h1.414v-7.132h0.029l1.928,7.132h1.614v-9.847h-1.399V111.564z
			 M65.029,105.557c-1.542,0-2.342,0.9-2.342,2.476v5.121c0,1.576,0.8,2.476,2.342,2.476s2.342-0.9,2.342-2.476v-3.123h-2.199v1.407
			h0.714v1.815c0,0.703-0.314,0.957-0.814,0.957s-0.814-0.253-0.814-0.957v-5.317c0-0.703,0.314-0.971,0.814-0.971
			s0.814,0.267,0.814,0.971v1.055h1.485v-0.957C67.371,106.457,66.571,105.557,65.029,105.557z M87.625,116.431h1.285v-11.676
			h-1.285V116.431z M107.736,112.661h-0.029l-1.142-6.992h-2.185v9.847h1.371v-6.963h0.029l1.142,6.963h1.485l1.057-7.062h0.029
			v7.062h1.485v-9.847h-2.185L107.736,112.661z M114.664,115.517h1.571v-9.847h-1.571V115.517z M125.161,105.669h-1.457l-1.2,3.629
			h-0.029l-1.171-3.629h-1.628l1.642,4.783l-1.756,5.064h1.471l1.285-3.897h0.029l1.271,3.897h1.656l-1.756-5.064L125.161,105.669z
			 M128.605,115.517h1.571v-9.847h-1.571V115.517z M137.431,111.564h-0.029l-1.585-5.894h-1.971v9.847h1.414v-7.132h0.029
			l1.928,7.132h1.614v-9.847h-1.4V111.564z M144.716,105.557c-1.542,0-2.342,0.9-2.342,2.476v5.121c0,1.576,0.8,2.476,2.342,2.476
			s2.342-0.9,2.342-2.476v-3.123h-2.199v1.407h0.714v1.815c0,0.703-0.314,0.957-0.814,0.957s-0.814-0.253-0.814-0.957v-5.317
			c0-0.703,0.314-0.971,0.814-0.971s0.814,0.267,0.814,0.971v1.055h1.485v-0.957C147.058,106.457,146.258,105.557,144.716,105.557z
			 M162.556,116.431h1.285v-11.676h-1.285V116.431z M182.667,112.661h-0.029l-1.142-6.992h-2.185v9.847h1.371v-6.963h0.029
			l1.142,6.963h1.485l1.057-7.062h0.029v7.062h1.485v-9.847h-2.185L182.667,112.661z M190.78,105.669l-1.599,9.847h1.442
			l0.271-1.787h1.928l0.271,1.787h1.585l-1.599-9.847H190.78z M191.094,112.394l0.743-4.98h0.029l0.743,4.98H191.094z
			 M200.664,110.073c-1.028-0.886-1.342-1.421-1.342-2.138c0-0.703,0.286-0.971,0.785-0.971s0.785,0.267,0.785,0.971v0.408h1.485
			v-0.31c0-1.576-0.785-2.476-2.313-2.476c-1.528,0-2.313,0.9-2.313,2.476c0,1.125,0.414,1.941,1.728,3.081
			c1.028,0.886,1.342,1.421,1.342,2.138c0,0.703-0.314,0.957-0.814,0.957c-0.5,0-0.814-0.253-0.814-0.957v-0.703h-1.485v0.605
			c0,1.576,0.8,2.476,2.342,2.476c1.542,0,2.342-0.9,2.342-2.476C202.392,112.028,201.978,111.212,200.664,110.073z
			 M205.378,107.076h1.642v8.44h1.571v-8.44h1.642v-1.407h-4.855V107.076z M213.462,115.517h4.284v-1.407h-2.713v-2.884h2.156
			v-1.407h-2.156v-2.743h2.713v-1.407h-4.284V115.517z M225.974,112.802c0-1.027-0.257-1.758-1.042-2.082v-0.028
			c0.7-0.324,1.028-0.971,1.028-1.984v-0.774c0-1.519-0.7-2.265-2.328-2.265h-2.371v9.847h1.571v-4.009h0.543
			c0.714,0,1.028,0.338,1.028,1.252v1.547c0,0.802,0.057,0.957,0.143,1.21h1.599c-0.157-0.366-0.171-0.717-0.171-1.196V112.802z
			 M224.388,109.06c0,0.788-0.357,1.041-0.943,1.041h-0.614v-3.025h0.757c0.557,0,0.8,0.31,0.8,1.013V109.06z M229.546,115.517
			h1.571v-9.847h-1.571V115.517z M238.372,111.564h-0.029l-1.585-5.894h-1.971v9.847h1.414v-7.132h0.029l1.928,7.132h1.614v-9.847
			h-1.399V111.564z M247.998,108.989v-0.957c0-1.576-0.8-2.476-2.342-2.476c-1.542,0-2.342,0.9-2.342,2.476v5.121
			c0,1.576,0.8,2.476,2.342,2.476c1.542,0,2.342-0.9,2.342-2.476v-3.123h-2.199v1.407h0.714v1.815c0,0.703-0.314,0.957-0.814,0.957
			c-0.5,0-0.814-0.253-0.814-0.957v-5.317c0-0.703,0.314-0.971,0.814-0.971c0.5,0,0.814,0.267,0.814,0.971v1.055H247.998z"/>
	</g>
</g>
<g id="Shape_1">
	<g>
		<rect y="124.967" fill-rule="evenodd" clip-rule="evenodd" fill="#17A2DA" width="259.136" height="1.033"/>
	</g>
</g>
</svg>
