<?xml version="1.0" encoding="utf-8"?>
<!-- Generator: Adobe Illustrator 17.0.0, SVG Export Plug-In . SVG Version: 6.00 Build 0)  -->
<!DOCTYPE svg PUBLIC "-//W3C//DTD SVG 1.1//EN" "http://www.w3.org/Graphics/SVG/1.1/DTD/svg11.dtd">
<svg version="1.1" id="Group_1_copy_1_" xmlns="http://www.w3.org/2000/svg" xmlns:xlink="http://www.w3.org/1999/xlink" x="0px"
	 y="0px" width="200px" height="77px" viewBox="0 0 200 77" enable-background="new 0 0 200 77" xml:space="preserve">
<g id="Recording____x7C___Mixing___x7C___Mastering">
	<g>
		<path fill="#17A2DA" d="M2.847,68.699c0-0.625-0.157-1.071-0.638-1.268v-0.017c0.428-0.197,0.63-0.591,0.63-1.208v-0.471
			c0-0.925-0.428-1.379-1.425-1.379h-1.451v5.997h0.962v-2.442h0.332c0.437,0,0.63,0.206,0.63,0.763v0.942
			c0,0.488,0.035,0.583,0.087,0.737h0.979c-0.096-0.223-0.105-0.437-0.105-0.728V68.699z M1.877,66.42
			c0,0.48-0.219,0.634-0.577,0.634H0.924v-1.842h0.463c0.341,0,0.49,0.188,0.49,0.617V66.42z M5.034,70.352h2.623v-0.857H5.995
			v-1.756h1.32v-0.857h-1.32v-1.671h1.661v-0.857H5.034V70.352z M11.164,64.287c-0.944,0-1.434,0.548-1.434,1.508v3.119
			c0,0.96,0.49,1.508,1.434,1.508c0.944,0,1.434-0.548,1.434-1.508v-0.797h-0.909v0.857c0,0.428-0.192,0.583-0.498,0.583
			c-0.306,0-0.498-0.154-0.498-0.583v-3.239c0-0.428,0.192-0.591,0.498-0.591c0.306,0,0.498,0.163,0.498,0.591v0.643h0.909v-0.583
			C12.597,64.835,12.108,64.287,11.164,64.287z M16.122,64.287c-0.944,0-1.46,0.548-1.46,1.508v3.119c0,0.96,0.516,1.508,1.46,1.508
			s1.46-0.548,1.46-1.508v-3.119C17.582,64.835,17.066,64.287,16.122,64.287z M16.62,68.973c0,0.428-0.192,0.591-0.498,0.591
			c-0.306,0-0.498-0.163-0.498-0.591v-3.239c0-0.428,0.192-0.591,0.498-0.591c0.306,0,0.498,0.163,0.498,0.591V68.973z
			 M22.645,68.699c0-0.625-0.157-1.071-0.638-1.268v-0.017c0.428-0.197,0.629-0.591,0.629-1.208v-0.471
			c0-0.925-0.428-1.379-1.425-1.379H19.76v5.997h0.962v-2.442h0.332c0.437,0,0.629,0.206,0.629,0.763v0.942
			c0,0.488,0.035,0.583,0.087,0.737h0.979c-0.096-0.223-0.105-0.437-0.105-0.728V68.699z M21.674,66.42
			c0,0.48-0.219,0.634-0.577,0.634h-0.376v-1.842h0.463c0.341,0,0.49,0.188,0.49,0.617V66.42z M26.353,64.355h-1.521v5.997h1.521
			c0.962,0,1.434-0.523,1.434-1.482v-3.033C27.787,64.878,27.315,64.355,26.353,64.355z M26.825,68.913
			c0,0.428-0.184,0.583-0.49,0.583h-0.542v-4.284h0.542c0.306,0,0.49,0.154,0.49,0.583V68.913z M29.956,70.352h0.962v-5.997h-0.962
			V70.352z M35.36,67.945h-0.018l-0.97-3.59h-1.206v5.997h0.865v-4.344h0.018l1.18,4.344h0.988v-5.997H35.36V67.945z M39.819,64.287
			c-0.944,0-1.434,0.548-1.434,1.508v3.119c0,0.96,0.49,1.508,1.434,1.508s1.434-0.548,1.434-1.508v-1.902h-1.346v0.857h0.437v1.105
			c0,0.428-0.192,0.583-0.498,0.583c-0.306,0-0.498-0.154-0.498-0.583v-3.239c0-0.428,0.192-0.591,0.498-0.591
			c0.306,0,0.498,0.163,0.498,0.591v0.643h0.909v-0.583C41.253,64.835,40.764,64.287,39.819,64.287z M53.654,70.909h0.787v-7.111
			h-0.787V70.909z M65.966,68.613h-0.017l-0.699-4.258h-1.338v5.997h0.839v-4.241h0.018l0.699,4.241h0.909l0.647-4.301h0.018v4.301
			h0.909v-5.997h-1.338L65.966,68.613z M70.208,70.352h0.962v-5.997h-0.962V70.352z M76.634,64.355h-0.892l-0.734,2.21H74.99
			l-0.717-2.21h-0.997l1.005,2.913l-1.075,3.084h0.901l0.787-2.373h0.018l0.778,2.373h1.014l-1.075-3.084L76.634,64.355z
			 M78.742,70.352h0.962v-5.997h-0.962V70.352z M84.146,67.945h-0.017l-0.97-3.59h-1.206v5.997h0.866v-4.344h0.017l1.18,4.344h0.988
			v-5.997h-0.857V67.945z M88.606,64.287c-0.944,0-1.434,0.548-1.434,1.508v3.119c0,0.96,0.49,1.508,1.434,1.508
			s1.434-0.548,1.434-1.508v-1.902h-1.346v0.857h0.437v1.105c0,0.428-0.192,0.583-0.498,0.583c-0.306,0-0.498-0.154-0.498-0.583
			v-3.239c0-0.428,0.192-0.591,0.498-0.591c0.306,0,0.498,0.163,0.498,0.591v0.643h0.909v-0.583
			C90.039,64.835,89.55,64.287,88.606,64.287z M99.528,70.909h0.787v-7.111h-0.787V70.909z M111.84,68.613h-0.018l-0.699-4.258
			h-1.338v5.997h0.839v-4.241h0.018l0.699,4.241h0.909l0.647-4.301h0.017v4.301h0.909v-5.997h-1.338L111.84,68.613z M116.807,64.355
			l-0.979,5.997h0.883l0.166-1.088h1.18l0.166,1.088h0.97l-0.979-5.997H116.807z M117,68.45l0.455-3.033h0.017l0.455,3.033H117z
			 M122.859,67.037c-0.63-0.54-0.822-0.865-0.822-1.302c0-0.428,0.175-0.591,0.481-0.591c0.306,0,0.481,0.163,0.481,0.591v0.248
			h0.909v-0.188c0-0.96-0.481-1.508-1.416-1.508c-0.935,0-1.416,0.548-1.416,1.508c0,0.685,0.254,1.182,1.058,1.876
			c0.629,0.54,0.822,0.865,0.822,1.302c0,0.428-0.192,0.583-0.498,0.583c-0.306,0-0.498-0.154-0.498-0.583v-0.428h-0.909v0.368
			c0,0.96,0.49,1.508,1.434,1.508s1.434-0.548,1.434-1.508C123.916,68.228,123.663,67.731,122.859,67.037z M125.745,65.212h1.005
			v5.14h0.962v-5.14h1.005v-0.857h-2.973V65.212z M130.694,70.352h2.623v-0.857h-1.661v-1.756h1.32v-0.857h-1.32v-1.671h1.661
			v-0.857h-2.623V70.352z M138.354,68.699c0-0.625-0.157-1.071-0.638-1.268v-0.017c0.428-0.197,0.629-0.591,0.629-1.208v-0.471
			c0-0.925-0.428-1.379-1.425-1.379h-1.451v5.997h0.962v-2.442h0.332c0.437,0,0.629,0.206,0.629,0.763v0.942
			c0,0.488,0.035,0.583,0.087,0.737h0.979c-0.096-0.223-0.105-0.437-0.105-0.728V68.699z M137.383,66.42
			c0,0.48-0.219,0.634-0.577,0.634h-0.376v-1.842h0.463c0.341,0,0.49,0.188,0.49,0.617V66.42z M140.541,70.352h0.962v-5.997h-0.962
			V70.352z M145.944,67.945h-0.017l-0.97-3.59h-1.206v5.997h0.865v-4.344h0.018l1.18,4.344h0.988v-5.997h-0.857V67.945z
			 M151.838,66.377v-0.583c0-0.96-0.49-1.508-1.434-1.508s-1.434,0.548-1.434,1.508v3.119c0,0.96,0.49,1.508,1.434,1.508
			s1.434-0.548,1.434-1.508v-1.902h-1.346v0.857h0.437v1.105c0,0.428-0.192,0.583-0.498,0.583c-0.306,0-0.498-0.154-0.498-0.583
			v-3.239c0-0.428,0.192-0.591,0.498-0.591c0.306,0,0.498,0.163,0.498,0.591v0.643H151.838z"/>
	</g>
</g>
<g id="Shape_1">
	<g>
		<rect x="0.007" y="76.108" fill-rule="evenodd" clip-rule="evenodd" fill="#17A2DA" width="158.649" height="0.629"/>
	</g>
</g>
<g id="Shape_2">
	<g>
		<path fill="#17A2DA" d="M5.957,48.563c-1.576,3.483-3.275,6.78-4.504,8.799C0.819,58.393,0,59.856,0,59.918
			C0,59.959,1.392,60,3.071,60c2.293,0,3.112-0.062,3.173-0.268c0.061-0.144,0.082-2.844,0.061-6.017
			C6.244,48.625,6.203,48.027,5.957,48.563z M35.211,50.953c-0.573-0.824-1.945-2.741-3.05-4.225
			c-1.105-1.484-2.436-3.338-2.989-4.142c-1.31-1.937-2.62-3.73-4.033-5.564c-0.635-0.824-1.167-1.669-1.187-1.875
			c-0.102-0.845,0.02-1.133,0.573-1.36c0.307-0.124,0.88-0.35,1.269-0.515c4.442-1.772,8.23-5.502,9.581-9.459
			c0.88-2.597,1.126-4.307,1.003-6.965c-0.246-5.131-1.842-8.532-5.302-11.231c-4.012-3.112-8.557-4.286-17.401-4.492L8.803,1v7.027
			L13.88,8.13c4.442,0.082,5.241,0.165,6.592,0.556c5.179,1.546,7.411,4.472,7.411,9.644c0,3.112-0.798,5.337-2.62,7.316
			c-2.559,2.782-6.121,3.854-12.713,3.854H8.803v6.327l2.661,0.103c2.457,0.082,2.702,0.144,3.419,0.639
			c0.43,0.309,1.187,1.175,1.699,1.917c0.512,0.763,1.065,1.525,1.228,1.71c0.164,0.185,0.594,0.763,0.921,1.257
			c0.348,0.515,1.146,1.669,1.802,2.576s1.515,2.164,1.945,2.782c0.409,0.618,0.819,1.175,0.921,1.216
			c0.102,0.041,0.266,0.268,0.368,0.515c0.102,0.227,0.614,0.989,1.105,1.669c0.512,0.68,1.269,1.752,1.679,2.37
			c0.43,0.618,0.86,1.236,0.983,1.339c0.123,0.124,0.491,0.618,0.819,1.113c0.307,0.515,0.655,1.03,0.757,1.133
			c0.102,0.124,0.635,0.886,1.187,1.669c0.696,0.969,1.269,1.566,1.781,1.793C32.734,59.938,33.512,60,36.972,60
			c3.214,0,4.156-0.062,4.238-0.268c0.061-0.144-0.696-1.36-1.679-2.7C36.828,53.302,36.337,52.602,35.211,50.953z M108.622,1.103
			c-4.381,0.082-4.381,0.082-5.548,2.267c-0.43,0.824-0.962,1.834-1.187,2.226c-0.225,0.392-0.676,1.236-1.024,1.855
			c-0.328,0.618-0.921,1.669-1.29,2.329c-0.389,0.659-0.696,1.236-0.696,1.298s-0.594,1.133-1.31,2.411
			c-0.716,1.278-1.658,3.009-2.109,3.854c-1.024,1.917-1.904,3.545-3.071,5.605c-0.471,0.886-0.88,1.628-0.88,1.669
			c0,0.062-0.676,1.278-1.494,2.741c-0.819,1.463-1.761,3.174-2.068,3.792c-0.328,0.618-0.798,1.504-1.065,1.958
			c-0.983,1.731-2.17,3.977-2.907,5.523c-0.778,1.649-1.167,1.958-2.129,1.71c-0.328-0.062-0.594-0.433-0.86-1.092
			c-0.225-0.536-1.351-2.7-2.539-4.781c-1.167-2.081-2.375-4.266-2.682-4.843c-0.328-0.577-0.778-1.401-1.024-1.813
			c-0.983-1.752-1.208-2.184-1.904-3.462c-1.044-1.937-1.576-2.885-4.401-7.893c-1.372-2.452-2.518-4.513-2.518-4.554
			c0-0.082-2.047-3.792-2.457-4.451c-0.102-0.165-0.348-0.577-0.512-0.927c-0.164-0.33-0.532-0.989-0.798-1.443
			c-0.266-0.453-0.737-1.319-1.065-1.917c-0.983-1.896-1.228-1.978-5.507-2.061c-3.316-0.062-3.685-0.041-3.931,0.289
			c-0.225,0.289-0.266,5.894-0.266,29.16c0,15.847,0.061,28.954,0.123,29.119c0.123,0.289,0.573,0.33,3.746,0.289l3.603-0.062
			l0.102-20.876c0.082-18.258,0.143-20.896,0.409-21.061c0.43-0.268,1.085-0.247,1.474,0.062c0.246,0.206,2.825,4.554,2.825,4.802
			c0,0.041,1.065,1.999,2.375,4.348c1.31,2.349,2.457,4.472,2.559,4.699s0.409,0.783,0.696,1.236
			c0.266,0.453,0.635,1.113,0.798,1.443c0.184,0.35,0.409,0.762,0.532,0.927c0.164,0.247,2.19,3.957,4.913,8.964
			c2.375,4.348,3.296,5.976,3.746,6.45c0.655,0.721,1.679,1.072,3.05,1.072c1.413,0,2.498-0.412,3.091-1.175
			c0.43-0.536,0.737-1.051,2.989-5.317c0.614-1.133,1.167-2.143,1.249-2.267c0.102-0.103,0.45-0.762,0.819-1.443
			c0.348-0.68,0.88-1.69,1.187-2.267c0.328-0.556,0.962-1.772,1.453-2.679c0.491-0.907,1.044-1.917,1.249-2.267
			c0.205-0.33,0.737-1.319,1.167-2.164c1.413-2.658,2.334-4.389,3.153-5.811c0.43-0.742,0.88-1.587,1.003-1.855
			c0.102-0.247,0.287-0.618,0.409-0.783c0.409-0.659,2.661-4.802,2.661-4.925c0.021-0.433,0.819-1.092,1.331-1.092
			c1.187-0.021,1.126-0.989,1.126,21.185c0,17.146,0.041,20.464,0.287,20.67c0.184,0.165,1.351,0.227,3.726,0.185l3.46-0.062
			l0.061-29.139c0.02-22.462-0.021-29.201-0.205-29.428C112.348,1.082,111.652,1.041,108.622,1.103z M190.693,1.268
			c-0.205-0.165-1.31-0.227-3.931-0.165c-4.238,0.082-4.463,0.165-5.445,2.04c-0.307,0.618-0.696,1.34-0.839,1.628
			c-0.737,1.257-1.986,3.524-2.784,5.049c-0.491,0.907-1.105,2.061-1.392,2.576c-0.266,0.515-0.839,1.587-1.29,2.37
			c-0.45,0.804-1.003,1.813-1.228,2.267c-0.246,0.453-0.635,1.195-0.901,1.649s-0.757,1.339-1.085,1.958
			c-0.328,0.618-1.105,2.061-1.72,3.194c-0.614,1.133-1.187,2.205-1.269,2.37c-0.082,0.165-0.368,0.68-0.635,1.133
			c-0.287,0.453-0.594,1.051-0.716,1.298c-0.123,0.268-0.573,1.113-1.003,1.855c-0.43,0.763-1.065,1.896-1.392,2.514
			c-0.348,0.618-0.819,1.504-1.065,1.937c-0.266,0.453-0.962,1.813-1.576,3.029c-0.737,1.463-1.269,2.267-1.535,2.349
			c-0.798,0.268-1.29-0.062-1.802-1.195c-0.266-0.577-1.249-2.411-2.17-4.06s-2.211-3.957-2.846-5.152
			c-0.635-1.195-1.249-2.308-1.351-2.473c-0.225-0.371-1.556-2.72-2.109-3.709c-0.225-0.392-0.717-1.319-1.126-2.061
			c-0.389-0.742-0.778-1.422-0.86-1.546c-0.082-0.103-0.553-0.948-1.024-1.855c-0.491-0.907-1.638-2.988-2.559-4.637
			c-1.72-3.05-2.477-4.41-3.275-5.873c-0.246-0.453-0.696-1.257-0.983-1.793c-0.307-0.556-0.778-1.381-1.044-1.855
			c-1.658-3.05-1.433-2.926-5.916-3.009c-2.62-0.062-3.726,0-3.931,0.165c-0.266,0.227-0.307,4.163-0.307,29.16
			c0,15.909,0.061,29.057,0.123,29.242c0.102,0.289,0.635,0.33,3.664,0.33s3.562-0.041,3.664-0.33
			c0.061-0.185,0.123-9.541,0.123-20.793c0-18.341,0.041-20.505,0.328-20.793c0.635-0.639,1.74-0.309,2.109,0.639
			c0.123,0.33,0.594,1.236,1.044,2.02c0.471,0.804,0.983,1.731,1.146,2.061c0.164,0.35,0.532,0.989,0.798,1.443
			s0.594,1.051,0.716,1.298c0.102,0.268,0.573,1.113,1.003,1.855c0.43,0.762,1.065,1.896,1.413,2.514
			c0.328,0.618,0.839,1.566,1.146,2.123c0.287,0.536,0.778,1.401,1.065,1.958c0.307,0.536,0.839,1.525,1.208,2.205
			c0.369,0.68,1.372,2.473,2.231,3.998c0.86,1.504,1.556,2.803,1.556,2.844c0,0.062,0.368,0.742,0.819,1.504
			c0.45,0.783,1.065,1.875,1.351,2.411c2.375,4.554,2.846,5.008,5.404,5.008c2.088,0,2.927-0.618,4.299-3.194
			c0.471-0.907,1.228-2.267,1.658-3.029c0.43-0.742,0.88-1.587,1.003-1.855c0.123-0.247,0.43-0.845,0.676-1.298
			c0.86-1.484,3.05-5.564,3.234-5.976c0.102-0.227,0.266-0.556,0.389-0.721c0.348-0.556,2.661-4.76,2.661-4.863
			c0-0.062,0.409-0.824,0.901-1.69c0.88-1.566,1.392-2.535,3.194-5.914c0.471-0.907,1.228-2.287,1.679-3.091
			c0.43-0.783,0.88-1.587,0.962-1.752c0.225-0.453,1.003-0.804,1.494-0.659c0.225,0.041,0.491,0.33,0.594,0.598
			c0.102,0.289,0.184,8.861,0.184,20.752c0,15.456,0.061,20.299,0.246,20.484c0.164,0.165,1.249,0.247,3.542,0.247
			c2.293,0,3.378-0.082,3.542-0.247C190.939,59.567,191,52.787,191,30.51C191,5.431,190.959,1.495,190.693,1.268z"/>
	</g>
</g>
</svg>
